<svg width="310" height="184" viewBox="0 0 310 184" fill="none" xmlns="http://www.w3.org/2000/svg">
<g clip-path="url(#clip0_237_62)">
<g filter="url(#filter0_d_237_62)">
<path d="M176.914 75.0781L177.237 76.0056C191.919 73.8446 212.817 77.0024 229.939 85.7572L230.167 85.312L229.939 85.7572C240.093 90.9483 248.877 98.0698 254.307 107.133C259.728 116.183 261.824 127.202 258.556 140.252L258.556 140.253C258.471 140.594 258.124 140.804 257.78 140.719C257.439 140.633 257.229 140.284 257.315 139.94C260.495 127.239 258.424 116.475 253.077 107.628C247.738 98.7955 239.154 91.9077 229.355 86.8975C219.466 81.8418 208.306 78.6637 197.854 77.3307C187.41 75.9987 177.631 76.5039 170.516 78.8547L170.516 78.8548C170.173 78.9686 169.981 78.8908 169.869 78.8154C169.732 78.7228 169.655 78.5884 169.636 78.5491L169.635 78.5485C169.602 78.4812 169.553 78.3621 169.554 78.2271C169.556 78.1131 169.591 77.9477 169.799 77.7557L169.799 77.7558C169.799 77.7558 169.807 77.7494 169.826 77.7351C169.846 77.7202 169.872 77.7009 169.907 77.6771C169.976 77.6294 170.068 77.569 170.183 77.4967C170.411 77.3523 170.715 77.1674 171.075 76.9528C171.796 76.524 172.729 75.9834 173.704 75.4234C174.36 75.0467 175.035 74.6608 175.675 74.2949C176.931 73.5769 178.052 72.9361 178.627 72.5935C179.3 72.1928 180.26 71.6926 181.408 71.0966L181.516 71.0404C182.632 70.4607 183.909 69.7978 185.233 69.0654C187.96 67.5564 190.919 65.7346 193.124 63.6986C194.371 62.5484 195.433 61.2945 195.943 59.9495C196.466 58.5705 196.397 57.1186 195.431 55.6618C194.456 54.1906 192.963 53.3674 191.188 52.9926C189.423 52.6199 187.351 52.6832 185.149 52.9982L185.148 52.9982C179.505 53.8062 172.803 56.4305 167.032 59.3213C161.269 62.2081 156.354 65.4012 154.309 67.39L154.308 67.3903C154.054 67.6379 153.649 67.6314 153.404 67.3791L153.404 67.379C153.157 67.1254 153.162 66.7208 153.417 66.4725C155.432 64.5121 160.434 61.2352 166.413 58.2326C172.383 55.2339 179.248 52.5495 184.966 51.7309C190.306 50.9666 194.477 51.9044 196.498 54.9524C197.622 56.6471 197.798 58.2953 197.318 59.8888C196.83 61.5076 195.652 63.1095 193.992 64.6405L193.992 64.6406C191.818 66.6468 188.87 68.481 186.087 70.0331C184.722 70.7943 183.406 71.4835 182.247 72.0899L182.187 72.1211C181.02 72.7318 180.006 73.2633 179.285 73.6933C178.822 73.968 177.941 74.4843 176.914 75.0781Z" fill="black" stroke="black"/>
<path d="M258.235 140.243L257.632 138.958C257.372 138.402 257.117 137.848 256.862 137.295C255.994 135.409 255.138 133.547 254.118 131.749L254.118 131.749C250.604 125.551 245.648 119.868 239.644 116.04C239.344 115.85 238.948 115.939 238.758 116.235C238.568 116.536 238.657 116.931 238.954 117.121C244.813 120.852 249.606 126.389 253.002 132.38L253.002 132.381C254.031 134.197 254.904 136.098 255.768 137.979C256.191 138.899 256.611 139.813 257.046 140.711C257.061 140.741 257.097 140.818 257.144 140.919C257.215 141.072 257.313 141.283 257.405 141.476C257.489 141.649 257.574 141.821 257.648 141.961C257.685 142.031 257.718 142.09 257.745 142.136C257.77 142.178 257.783 142.196 257.786 142.201C257.786 142.201 257.787 142.202 257.786 142.201L257.788 142.204C257.93 142.378 258.066 142.437 258.17 142.459C258.284 142.483 258.391 142.469 258.468 142.45L258.474 142.449L258.474 142.449C258.588 142.423 258.724 142.365 258.862 142.224C258.963 142.119 259.182 141.779 259.385 141.18L259.385 141.178C259.721 140.199 260.122 138.485 260.474 136.889C260.581 136.404 260.684 135.927 260.779 135.487C260.99 134.512 261.161 133.72 261.249 133.429C261.249 133.429 261.249 133.429 261.249 133.429L261.728 133.573C264.149 125.53 267.612 118.34 271.202 110.887C271.685 109.883 272.17 108.876 272.656 107.86L258.235 140.243ZM258.235 140.243L258.571 138.864C259.112 136.644 259.863 133.589 260.024 133.06L260.024 133.058C262.478 124.906 265.986 117.617 269.646 110.013C270.112 109.045 270.581 108.071 271.05 107.09C271.203 106.77 271.586 106.636 271.902 106.788C272.22 106.94 272.356 107.324 272.204 107.645L258.235 140.243Z" fill="black" stroke="black"/>
</g>
</g>
<path d="M26.5477 61.4032C25.671 62.8024 26.9268 66.8122 28.6999 68.2898C30.06 69.3948 31.0663 68.888 31.3312 66.948C31.6357 64.9033 30.1374 62.0007 28.432 61.2712C27.1326 60.7009 26.9761 60.7297 26.5477 61.4032Z" fill="black"/>
<path d="M14.8406 62.3338C13.964 63.733 15.2198 67.7429 16.9929 69.2204C18.353 70.3254 19.3593 69.8186 19.6242 67.8786C19.9286 65.8339 18.4304 62.9313 16.725 62.2018C15.4255 61.6315 15.2691 61.6603 14.8406 62.3338Z" fill="black"/>
<path d="M9.88193 73.7075C10.2414 75.9226 14.3541 80.0018 18.0101 81.7375C19.1376 82.3004 21.0826 82.7032 22.8021 82.7769C25.5025 82.8751 25.8859 82.7851 29.3741 81.1786C32.7215 79.637 33.2387 79.2689 34.844 77.4042C36.889 74.9907 38.8424 69.8059 38.2223 68.3601C37.6796 67.095 36.8918 67.7176 35.3133 70.8252C33.5656 74.2272 32.5918 75.4981 30.558 76.9542C28.6144 78.3254 24.9796 79.3934 22.6935 79.2776C19.9776 79.1433 14.8713 76.3874 12.0947 73.5541C10.6811 72.1275 9.64514 72.1718 9.88193 73.7075Z" fill="black"/>
<g filter="url(#filter1_d_237_62)">
<path d="M57.1567 74.9004L49.0932 56.2706L52.6062 54.75L55.9353 62.4415L62.8549 59.4465L59.5259 51.755L63.0389 50.2345L71.1024 68.8643L67.5894 70.3848L64.2373 62.6402L57.3176 65.6352L60.6697 73.3799L57.1567 74.9004ZM78.9884 65.8934C78.048 66.3004 77.1362 66.5055 76.2527 66.5087C75.3616 66.4941 74.5599 66.2723 73.8475 65.8433C73.1453 65.3889 72.5983 64.7093 72.2066 63.8044C71.815 62.8995 71.7015 62.0533 71.8662 61.2657C72.041 60.4527 72.4446 59.7303 73.077 59.0985C73.7194 58.4412 74.5374 57.8976 75.531 57.4675L79.1505 55.9009L78.828 55.1557C78.5592 54.5347 78.1452 54.1135 77.5859 53.8921C77.0189 53.653 76.3096 53.7177 75.458 54.0863C74.6241 54.4473 74.0875 54.9112 73.8484 55.4782C73.6016 56.0274 73.5466 56.6305 73.6836 57.2875L70.1471 57.5858C70.0682 56.8195 70.1403 56.0614 70.3636 55.3117C70.5969 54.5366 71.0309 53.8116 71.6657 53.1366C72.3105 52.4361 73.2007 51.8402 74.3362 51.3487C76.075 50.5961 77.6382 50.4356 79.0258 50.8673C80.4135 51.2989 81.4644 52.3398 82.1786 53.9899L84.3097 58.9135C84.54 59.4457 84.9036 59.6044 85.4004 59.3893L86.465 58.9286L87.663 61.6964L85.4274 62.664C84.7709 62.9482 84.1607 63.0227 83.5966 62.8877C83.0326 62.7526 82.6353 62.4189 82.405 61.8867L82.3934 61.86L81.8878 62.0789C81.9089 62.3225 81.8721 62.6755 81.7773 63.1379C81.6748 63.5825 81.4151 64.0531 80.998 64.5496C80.5809 65.0462 79.911 65.4941 78.9884 65.8934ZM78.3989 62.9254C79.3393 62.5184 79.9909 61.9309 80.3537 61.1629C80.7266 60.3695 80.7248 59.5381 80.3485 58.6687L80.2334 58.4026L76.8534 59.8655C76.2324 60.1343 75.8021 60.4786 75.5624 60.8983C75.3227 61.3181 75.3066 61.7674 75.5139 62.2465C75.7213 62.7255 76.0765 63.0353 76.5797 63.1756C77.0828 63.316 77.6892 63.2325 78.3989 62.9254ZM90.1148 60.6352L84.4012 47.4347L87.7546 45.9832L93.4682 59.1838L90.1148 60.6352ZM85.4098 45.1653C84.8066 45.4264 84.2075 45.454 83.6128 45.2479C83.0357 45.0342 82.609 44.608 82.3325 43.9693C82.0561 43.3305 82.0374 42.7277 82.2765 42.1607C82.5334 41.5861 82.9635 41.1682 83.5667 40.9071C84.1877 40.6383 84.7867 40.6108 85.3638 40.8245C85.9408 41.0382 86.3675 41.4644 86.644 42.1031C86.9205 42.7419 86.9391 43.3447 86.7 43.9117C86.4609 44.4787 86.0308 44.8965 85.4098 45.1653ZM97.1842 57.5754L89.1207 38.9456L92.474 37.4942L96.932 47.7938L97.411 47.5864L99.6677 40.8269L104.032 38.9377L100.702 47.963L109.959 52.0461L105.647 53.9123L98.7473 50.6737L98.2682 50.881L100.538 56.124L97.1842 57.5754ZM116.206 49.7844C115.266 50.1914 114.354 50.3965 113.471 50.3997C112.58 50.3851 111.778 50.1633 111.066 49.7343C110.363 49.2799 109.816 48.6003 109.425 47.6954C109.033 46.7905 108.92 45.9443 109.084 45.1567C109.259 44.3437 109.663 43.6213 110.295 42.9895C110.937 42.3322 111.755 41.7886 112.749 41.3585L116.369 39.7919L116.046 39.0467C115.777 38.4257 115.363 38.0045 114.804 37.7831C114.237 37.544 113.528 37.6087 112.676 37.9773C111.842 38.3383 111.306 38.8022 111.066 39.3692C110.82 39.9184 110.765 40.5215 110.902 41.1785L107.365 41.4768C107.286 40.7105 107.358 39.9524 107.582 39.2027C107.815 38.4276 108.249 37.7026 108.884 37.0276C109.529 36.3271 110.419 35.7312 111.554 35.2397C113.293 34.4871 114.856 34.3266 116.244 34.7583C117.632 35.1899 118.682 36.2308 119.397 37.8809L121.528 42.8044C121.758 43.3367 122.122 43.4954 122.618 43.2803L123.683 42.8196L124.881 45.5874L122.645 46.555C121.989 46.8392 121.379 46.9137 120.815 46.7787C120.251 46.6436 119.853 46.3099 119.623 45.7777L119.611 45.751L119.106 45.9699C119.127 46.2135 119.09 46.5665 118.995 47.0289C118.893 47.4735 118.633 47.9441 118.216 48.4406C117.799 48.9372 117.129 49.3851 116.206 49.7844ZM115.617 46.8164C116.557 46.4093 117.209 45.8219 117.572 45.0539C117.945 44.2605 117.943 43.4291 117.567 42.5597L117.451 42.2936L114.071 43.7565C113.45 44.0253 113.02 44.3696 112.78 44.7893C112.541 45.209 112.525 45.6584 112.732 46.1375C112.939 46.6165 113.295 46.9262 113.798 47.0666C114.301 47.207 114.907 47.1235 115.617 46.8164ZM127.333 44.5262L119.269 25.8964L122.623 24.445L130.686 43.0748L127.333 44.5262Z" fill="black"/>
</g>
<defs>
<filter id="filter0_d_237_62" x="151.722" y="50.9786" width="121.045" height="95.993" filterUnits="userSpaceOnUse" color-interpolation-filters="sRGB">
<feFlood flood-opacity="0" result="BackgroundImageFix"/>
<feColorMatrix in="SourceAlpha" type="matrix" values="0 0 0 0 0 0 0 0 0 0 0 0 0 0 0 0 0 0 127 0" result="hardAlpha"/>
<feOffset dx="-1" dy="4"/>
<feComposite in2="hardAlpha" operator="out"/>
<feColorMatrix type="matrix" values="0 0 0 0 0 0 0 0 0 0 0 0 0 0 0 0 0 0 1 0"/>
<feBlend mode="normal" in2="BackgroundImageFix" result="effect1_dropShadow_237_62"/>
<feBlend mode="normal" in="SourceGraphic" in2="effect1_dropShadow_237_62" result="shape"/>
</filter>
<filter id="filter1_d_237_62" x="48.9316" y="24.0724" width="81.916" height="55.2007" filterUnits="userSpaceOnUse" color-interpolation-filters="sRGB">
<feFlood flood-opacity="0" result="BackgroundImageFix"/>
<feColorMatrix in="SourceAlpha" type="matrix" values="0 0 0 0 0 0 0 0 0 0 0 0 0 0 0 0 0 0 127 0" result="hardAlpha"/>
<feOffset dy="4"/>
<feComposite in2="hardAlpha" operator="out"/>
<feColorMatrix type="matrix" values="0 0 0 0 0.906944 0 0 0 0 0.906944 0 0 0 0 0.906944 0 0 0 0.32 0"/>
<feBlend mode="normal" in2="BackgroundImageFix" result="effect1_dropShadow_237_62"/>
<feBlend mode="normal" in="SourceGraphic" in2="effect1_dropShadow_237_62" result="shape"/>
</filter>
<clipPath id="clip0_237_62">
<rect width="130" height="130" fill="white" transform="translate(213.916) rotate(42.6258)"/>
</clipPath>
</defs>
</svg>
