<svg width="205" height="204" viewBox="0 0 205 204" fill="none" xmlns="http://www.w3.org/2000/svg">
<rect width="143.482" height="149.353" transform="translate(122.359) rotate(55.0113)" fill="#F3ABCB"/>
<g filter="url(#filter0_d_237_15)">
<path d="M155.927 50.9549C153.863 51.5841 153.902 51.5567 136.474 67.0162C129.414 73.239 123.44 78.3518 123.241 78.3166C123.042 78.2814 122.565 74.1886 122.241 69.2318C121.577 59.7952 120.643 54.2169 119.533 52.5477C118.22 50.6712 116.601 50.5226 114.451 52.0275C112.184 53.6144 110.761 55.6588 104.029 67.0104C98.5085 76.3489 97.0815 78.2213 95.7251 77.9476C93.9699 77.6035 90.9718 74.9842 76.251 60.9419C68.2417 53.3265 60.8891 46.6494 59.8845 46.1294C56.6127 44.2842 54.8574 46.8523 56.1197 51.7349C56.4949 53.1031 59.055 59.7565 61.8027 66.5115C69.44 85.1622 73.2858 97.1477 71.9176 98.1053C71.6049 98.3242 68.9662 98.1325 65.9914 97.7102C55.3002 96.1655 48.2834 95.5435 47.0364 96.0086C46.0786 96.3878 45.7698 96.7787 45.6876 97.8263C45.5938 98.9404 45.8127 99.2531 47.3098 100.477C48.2792 101.196 53.9902 104.363 59.9904 107.443C65.9907 110.524 71.2991 113.448 71.7994 113.914C73.3122 115.243 73.015 116.15 70.6225 118.057C69.4263 119.011 63.234 123.811 56.8463 128.748C41.9129 140.365 39.8175 142.53 41.3771 144.759C43.183 147.339 48.5776 146.475 70.0349 140.018C79.1862 137.283 87.0788 135.078 87.544 135.16C88.2476 135.25 88.2867 135.806 87.7666 137.975C86.3981 143.592 83.8838 158.224 84.0479 159.623C84.466 162.884 86.4908 163.447 89.1101 161.031C89.8997 160.245 93.9967 155.281 98.2697 149.902C102.504 144.551 106.057 140.142 106.19 140.165C106.323 140.189 107.406 142.984 108.566 146.306C111.408 154.277 116.731 166.626 119.194 170.727C120.957 173.745 121.242 174.07 122.45 174.214C125.237 174.535 125.577 173.19 128.495 152.394C129.554 144.838 130.696 138.564 130.985 138.478C131.275 138.392 134.253 139.569 137.545 141.109C145.812 144.933 151.187 146.704 153.415 146.309C155.182 146.004 155.26 145.95 155.495 144.62C155.863 142.732 152.951 137.49 148.272 131.388C146.267 128.772 144.625 126.427 144.699 126.2C144.707 125.962 148.343 126.329 152.701 127.065C165.363 129.094 176.84 130.264 180.416 129.799C183.215 129.47 184.353 127.684 183.012 125.769C182.438 124.948 173.189 119.889 159.996 113.106C154.719 110.392 150.404 108.055 150.372 107.843C150.341 107.632 154.418 104.72 159.387 101.417C169.688 94.499 171.267 92.9276 170.204 90.9925C169.43 89.554 168.809 89.5813 156.941 91.0152C146.71 92.2929 142.919 92.6172 142.618 92.1871C142.508 92.0308 143.134 90.4281 144.017 88.5283C144.889 86.695 146.86 82.5202 148.427 79.2679C153.279 69.0577 157.826 58.2454 158.502 55.384C159.038 53.32 159.003 52.3545 158.428 51.5335C157.772 50.5953 157.373 50.5249 155.927 50.9549ZM154.726 58.1436C152.736 63.2057 146.508 76.9419 142.95 84.0914C139.948 90.037 139.033 92.8906 139.826 94.0242C140.757 95.3534 145.377 95.381 154.892 94.0798C160.185 93.4039 165.017 92.8178 165.627 92.8569C166.58 92.8882 166.596 92.9938 165.4 93.9475C164.684 94.5065 160.138 97.7469 155.318 101.179L146.522 107.335L147.143 108.473C147.612 109.309 152.12 111.921 163.44 117.859C172.067 122.363 179.263 126.237 179.428 126.472C179.592 126.706 179.611 126.984 179.455 127.093C178.712 127.613 160.848 125.556 151.638 123.965C146.056 122.979 141.302 122.346 140.99 122.565C139.661 123.495 140.118 124.398 146.685 133.78C150.269 138.901 153.095 143.272 152.982 143.526C152.544 144.648 146.633 142.611 137.478 138.185C131.99 135.503 130.063 135.163 128.722 136.742C128.128 137.391 127.053 143.094 125.418 153.907C124.124 162.792 122.888 170.18 122.692 170.317C121.793 170.946 119.077 164.985 113.296 149.985C107.727 135.537 107.645 135.42 105.064 137.225C104.361 137.718 101.64 140.904 99.0557 144.285C92.5388 152.865 87.3941 158.912 87.0657 158.443C86.6553 157.857 87.762 151.199 89.6779 142.869C91.6799 134.246 91.719 133.054 90.3665 132.37C88.8537 131.623 86.3245 132.17 72.5213 136.414C53.7222 142.175 45.0986 144.251 44.3051 143.117C43.7853 142.374 47.0456 139.626 63.0227 127.337C70.036 121.962 74.8561 117.948 75.29 117.237C77.0493 114.258 74.3248 111.447 65.2326 106.861C55.4836 101.92 50.8593 99.3902 50.9297 98.9915C50.9727 98.5537 53.4002 98.7766 63.0556 100.173C71.4483 101.346 73.7899 101.28 74.5249 99.8333C76.1708 96.5263 73.4897 87.4532 63.7105 63.0795C59.8254 53.4512 58.5904 49.7726 59.0986 49.4169C59.5286 49.116 59.6107 49.2332 74.3041 63.2364C88.7279 77.0207 91.1866 79.2021 93.786 80.5861C97.6715 82.6425 99.2274 81.204 107.019 68.1208C112.985 58.0044 115.33 54.6153 116.437 54.3652C117.66 54.033 118.372 57.9617 119.243 70.1073C119.989 80.826 120.368 82.9487 121.411 82.8588C121.65 82.8667 122.69 82.0224 123.726 81.0061C127.314 77.5624 153.784 55.1335 155.469 54.129C156.345 53.6326 156.263 54.0978 154.726 58.1436Z" fill="black"/>
</g>
<g filter="url(#filter1_d_237_15)">
<path d="M128.82 93.6913C123.378 88.9962 113.985 85.7276 106.577 85.9617C102.848 86.1257 97.297 87.6812 93.5833 89.6981C83.1066 95.2836 81.2334 109.583 89.7038 119.438C98.3227 129.422 114.874 133.68 124.936 128.501C133.008 124.307 137.86 115.262 136.528 106.701C136.063 103.707 135.672 102.815 133.463 99.4105C131.845 96.9321 130.156 94.8524 128.82 93.6913ZM133.334 107.131C133.861 110.548 132.954 115.492 131.136 118.803C129.748 121.231 129.244 121.759 125.53 124.358C121.777 126.985 121.148 127.25 118.287 127.739C114.659 128.298 107.951 127.285 103.342 125.443C87.1785 118.992 81.9648 101.558 93.6925 93.3492C98.7746 89.7922 107.293 87.7326 112.742 88.6945C115.627 89.2381 122.925 92.9248 125.892 95.3329C129.062 97.9483 132.838 103.926 133.334 107.131Z" fill="black"/>
</g>
<path d="M119.533 108.053C118.74 107.502 117.102 108.823 117.219 109.906C117.45 111.899 120.217 111.942 120.569 109.949C120.722 109.085 120.46 108.628 119.533 108.053Z" fill="black"/>
<path d="M105.058 99.6046C103.663 99.9407 103.092 101.039 103.713 102.177C104.405 103.498 106.161 103.26 106.552 101.821C106.856 100.676 105.954 99.3857 105.058 99.6046Z" fill="black"/>
<path d="M107.616 115.987C105.161 118.055 104.559 118.36 103.339 118.282C102.119 118.204 101.85 117.985 101.56 116.906C101.295 115.694 101.768 113.208 102.663 111.242C103.003 110.479 102.921 110.362 102.178 110.299C100.865 110.17 99.1291 113.598 99.2618 115.952C99.4688 119.826 102.514 121.597 106.063 119.928C107.752 119.095 110.352 116.402 110.759 115.069C111.212 113.47 110.344 113.728 107.616 115.987Z" fill="black"/>
<defs>
<filter id="filter0_d_237_15" x="40.9434" y="45.53" width="142.63" height="132.721" filterUnits="userSpaceOnUse" color-interpolation-filters="sRGB">
<feFlood flood-opacity="0" result="BackgroundImageFix"/>
<feColorMatrix in="SourceAlpha" type="matrix" values="0 0 0 0 0 0 0 0 0 0 0 0 0 0 0 0 0 0 127 0" result="hardAlpha"/>
<feOffset dy="4"/>
<feComposite in2="hardAlpha" operator="out"/>
<feColorMatrix type="matrix" values="0 0 0 0 0 0 0 0 0 0 0 0 0 0 0 0 0 0 0.25 0"/>
<feBlend mode="normal" in2="BackgroundImageFix" result="effect1_dropShadow_237_15"/>
<feBlend mode="normal" in="SourceGraphic" in2="effect1_dropShadow_237_15" result="shape"/>
</filter>
<filter id="filter1_d_237_15" x="84.375" y="85.95" width="52.3721" height="48.7668" filterUnits="userSpaceOnUse" color-interpolation-filters="sRGB">
<feFlood flood-opacity="0" result="BackgroundImageFix"/>
<feColorMatrix in="SourceAlpha" type="matrix" values="0 0 0 0 0 0 0 0 0 0 0 0 0 0 0 0 0 0 127 0" result="hardAlpha"/>
<feOffset dy="4"/>
<feComposite in2="hardAlpha" operator="out"/>
<feColorMatrix type="matrix" values="0 0 0 0 0 0 0 0 0 0 0 0 0 0 0 0 0 0 0.25 0"/>
<feBlend mode="normal" in2="BackgroundImageFix" result="effect1_dropShadow_237_15"/>
<feBlend mode="normal" in="SourceGraphic" in2="effect1_dropShadow_237_15" result="shape"/>
</filter>
</defs>
</svg>
