<?xml version="1.0" encoding="UTF-8" standalone="no"?>
<!-- Created with Inkscape (http://www.inkscape.org/) -->

<svg
   width="42.085979mm"
   height="31.055534mm"
   viewBox="0 0 42.085979 31.055534"
   version="1.1"
   id="svg1"
   xml:space="preserve"
   xmlns:inkscape="http://www.inkscape.org/namespaces/inkscape"
   xmlns:sodipodi="http://sodipodi.sourceforge.net/DTD/sodipodi-0.dtd"
   xmlns="http://www.w3.org/2000/svg"
   xmlns:svg="http://www.w3.org/2000/svg"><sodipodi:namedview
     id="namedview1"
     pagecolor="#ffffff"
     bordercolor="#000000"
     borderopacity="0.25"
     inkscape:showpageshadow="2"
     inkscape:pageopacity="0.0"
     inkscape:pagecheckerboard="0"
     inkscape:deskcolor="#d1d1d1"
     inkscape:document-units="mm" /><defs
     id="defs1" /><g
     inkscape:label="Layer 1"
     inkscape:groupmode="layer"
     id="layer1"
     transform="translate(-21.61928,-198.45457)"><path
       style="fill:#f3abb3;fill-opacity:1"
       d="m 42.765186,228.84321 c -0.504448,-0.6413 -0.801169,-1.49481 -1.988622,-5.72019 -0.235149,-0.83674 -0.535719,-1.52135 -0.667934,-1.52135 -0.132215,0 -1.214914,0.83938 -2.405998,1.86529 -1.191084,1.02591 -2.354834,1.82886 -2.586111,1.78432 -0.231276,-0.0445 -0.58444,-0.51172 -0.784809,-1.03817 l -0.364306,-0.95718 1.709208,-2.48078 c 1.573119,-2.28325 2.570522,-3.95937 2.570522,-4.31972 0,-0.27681 -2.004212,-0.14249 -7.8935,0.52899 -6.611437,0.75381 -8.589899,0.76935 -8.723079,0.0685 -0.157691,-0.82985 1.260471,-1.29417 9.208246,-3.01484 2.401093,-0.51984 4.453995,-1.03001 4.562003,-1.13372 0.108007,-0.10371 -0.640588,-0.87232 -1.663545,-1.70802 -1.918354,-1.5672 -2.671379,-2.62757 -2.200422,-3.09853 0.288753,-0.28875 1.90499,0.20671 5.056651,1.55013 l 1.918229,0.81766 0.03131,-4.1554 c 0.03846,-5.10509 0.149928,-5.7429 1.003688,-5.7429 0.858279,0 1.362999,1.04503 2.555733,5.29167 0.531332,1.89177 1.077402,3.55822 1.213488,3.70322 0.15945,0.16989 1.254412,-0.79538 3.07942,-2.71469 3.161687,-3.32506 3.909037,-3.69847 3.699484,-1.84843 -0.07005,0.61847 -0.502256,1.97788 -0.960451,3.02091 -0.458196,1.04304 -0.833083,2.02531 -0.833083,2.18282 0,0.38106 0.68651,0.35983 3.836458,-0.11864 6.540451,-0.99348 9.392711,-1.06379 9.392711,-0.23153 0,0.86297 -2.29011,1.69653 -10.557193,3.84262 -3.84213,0.9974 -3.893632,0.73774 0.686326,3.46023 3.205037,1.90519 4.395117,2.90352 4.266977,3.57951 -0.17417,0.91883 -1.74564,0.70479 -6.168809,-0.84021 -2.311662,-0.80746 -4.307497,-1.4681 -4.435191,-1.4681 -0.131587,0 -0.150993,2.16178 -0.04479,4.98994 0.182929,4.87152 0.173936,5.00339 -0.37893,5.55625 -0.757243,0.75724 -1.470115,0.71393 -2.133673,-0.12965 z"
       id="path1" /><path
       style="fill:#f3abb3;fill-opacity:1;stroke:#000000;stroke-opacity:1"
       d="m 44.439971,227.23048 c -0.504448,-0.6413 -0.801169,-1.49481 -1.988622,-5.72019 -0.235149,-0.83674 -0.535719,-1.52135 -0.667934,-1.52135 -0.132215,0 -1.214914,0.83938 -2.405998,1.86529 -1.191084,1.02591 -2.354834,1.82886 -2.586111,1.78432 -0.231276,-0.0445 -0.58444,-0.51172 -0.784809,-1.03817 l -0.364306,-0.95718 1.709208,-2.48078 c 1.573119,-2.28325 2.570522,-3.95937 2.570522,-4.31972 0,-0.27681 -2.004212,-0.14249 -7.8935,0.52899 -6.611437,0.75381 -8.589899,0.76935 -8.723079,0.0685 -0.157691,-0.82985 1.260471,-1.29417 9.208246,-3.01484 2.401093,-0.51984 4.453995,-1.03001 4.562003,-1.13372 0.108007,-0.10371 -0.640588,-0.87232 -1.663545,-1.70802 -1.918354,-1.5672 -2.671379,-2.62757 -2.200422,-3.09853 0.288753,-0.28875 1.90499,0.20671 5.056651,1.55013 l 1.918229,0.81766 0.03131,-4.1554 c 0.03846,-5.10509 0.149928,-5.7429 1.003688,-5.7429 0.858279,0 1.362999,1.04503 2.555733,5.29167 0.531332,1.89177 1.077402,3.55822 1.213488,3.70322 0.15945,0.16989 1.254412,-0.79538 3.07942,-2.71469 3.161687,-3.32506 3.909037,-3.69847 3.699484,-1.84843 -0.07005,0.61847 -0.502256,1.97788 -0.960451,3.02091 -0.458196,1.04304 -0.833083,2.02531 -0.833083,2.18282 0,0.38106 0.68651,0.35983 3.836458,-0.11864 6.540451,-0.99348 9.392711,-1.06379 9.392711,-0.23153 0,0.86297 -2.29011,1.69653 -10.557193,3.84262 -3.84213,0.9974 -3.893632,0.73774 0.686326,3.46023 3.205037,1.90519 4.395117,2.90352 4.266977,3.57951 -0.17417,0.91883 -1.74564,0.70479 -6.168809,-0.84021 -2.311662,-0.80746 -4.307497,-1.4681 -4.435191,-1.4681 -0.131587,0 -0.150993,2.16178 -0.04479,4.98994 0.182929,4.87152 0.173936,5.00339 -0.37893,5.55625 -0.757243,0.75724 -1.470115,0.71393 -2.133673,-0.12965 z"
       id="path1-7" /></g></svg>
