<svg width="46" height="46" viewBox="0 0 46 46" fill="none" xmlns="http://www.w3.org/2000/svg">
<path d="M37.7636 39.5976L41 3H5L5.0423 3.47492L8.23135 39.6028L8.25842 39.9034L22.8638 44H23.0939L37.7331 39.9L37.7602 39.5993L37.7636 39.5976ZM23.0313 10.9933H33.4918L33.1771 14.6833L22.857 19.3163L23.0296 20.15H32.7135L31.5986 33.0496L22.9941 35.4583L14.3929 33.053L13.8515 26.8757H17.3925L17.6767 30.007L17.7038 30.3111L22.923 31.712H23.148L28.3097 30.2633L28.3351 29.9609L28.8224 24.1765L28.8613 23.705H13.5555L13.234 19.9928L23.9077 15.3786L23.7385 14.5415H12.7756L12.4626 10.9882H23.0195L23.0313 10.9933Z" fill="black"/>
</svg>
