<svg width="92" height="46" viewBox="0 0 92 46" fill="none" xmlns="http://www.w3.org/2000/svg">
<path d="M62.6592 22.0333L62.72 20.8111V20.4444H62.2336C61.504 20.4444 60.7136 20.6278 60.1664 20.9944C59.3152 21.4833 58.8288 22.4 58.8288 23.6833C58.8288 25.5167 59.7408 26.5556 61.3216 26.5556C61.808 26.5556 62.112 26.4944 62.72 26.3111V23.6833L62.6592 22.0333ZM17.3024 23.6222C17.3024 25.5778 18.2752 26.6167 20.16 26.6167C20.5856 26.6167 20.768 26.6167 21.376 26.4944V20.6889C20.768 20.5667 20.6464 20.5056 20.16 20.5056C18.336 20.5056 17.3024 21.6667 17.3024 23.6222ZM35.2992 26.0056C35.2992 26.7389 35.7248 27.0444 36.6976 27.0444C37.2448 27.0444 37.792 26.9833 38.4 26.8611V24.4167C35.968 24.6611 35.2992 25.0278 35.2992 26.0056ZM73.6032 20.4444C72.2048 20.4444 71.3536 21.6056 71.3536 23.6222C71.3536 25.6389 72.144 26.8 73.6032 26.8C75.0016 26.8 75.792 25.6389 75.792 23.6222C75.792 21.6667 75.0016 20.4444 73.6032 20.4444ZM84 11.2167C84 8.89445 82.1152 7 79.8048 7H12.1952C9.8848 7 8 8.89445 8 11.2167V35.7222C8 38.1056 9.8848 40 12.1952 40H79.744C82.0544 40 83.9392 38.1056 83.9392 35.7833V11.2167H84ZM13.6544 23.6833C13.6544 20.0167 16.0864 17.5722 19.856 17.5722C20.464 17.5722 20.8288 17.6333 21.4368 17.7556V12.5H25.0848V29C23.2608 29.3667 21.8624 29.4889 20.4032 29.4889C15.9648 29.4889 13.6544 27.5333 13.6544 23.6833ZM30.496 26.25C30.496 29.1222 30.3744 30.5278 29.7664 31.75C29.1584 32.9111 28.4896 33.6444 26.9088 34.4389L23.5648 32.85C25.1456 32.1167 25.8144 31.4444 26.3008 30.4056C26.7872 29.3667 26.848 28.1444 26.848 25.0278V18H30.496V26.25ZM30.496 16.1667H26.848V12.5H30.496V16.1667ZM41.44 29.1833C40.224 29.4278 37.9136 29.6111 36.3936 29.6111C33.3536 29.6111 32.0768 28.5722 32.0768 26.1889C32.0768 23.6222 34.0832 22.4611 38.3392 22.0944V21.3C38.3392 20.6278 38.0352 20.3833 37.1232 20.3833C35.7856 20.3833 34.0832 20.75 32.8672 21.4833V18.6722C34.6912 17.9389 35.968 17.5722 37.6096 17.5722C39.4336 17.5722 40.528 18.0611 41.0752 19.0389C41.3792 19.5889 41.3792 20.2611 41.3792 21.7889V29.1833H41.44ZM54.208 29.6111H50.56V22.4C50.56 20.9944 49.952 20.5056 48.6752 20.5056C48.1888 20.5056 47.52 20.5667 46.912 20.75V29.6111H43.264V18.4278C45.696 17.8778 47.216 17.6333 48.9792 17.6333C50.8032 17.6333 52.2624 18.0611 53.0528 18.8556C53.8432 19.65 54.208 20.4444 54.208 22.2778V29.6111ZM65.9424 22.5222L66.368 25.9444V26.9833C66.368 30.1 66.0032 31.5667 65.2128 32.7278C64.1184 34.5 62.112 35.3556 59.3152 35.3556C57.9168 35.3556 56.5792 35.1722 55.3632 34.6222V31.2611C56.5792 31.9333 57.9168 32.2389 59.2544 32.2389C61.6256 32.2389 62.6592 31.2611 62.6592 29V28.9389C62.0512 29.3056 61.2 29.4278 60.288 29.4278C57.1264 29.4278 55.12 27.35 55.12 24.05C55.12 19.9556 58.0992 17.6333 63.328 17.6333C64.848 17.6333 66.3072 17.8167 68.0096 18.1222L66.6112 20.75C65.6384 20.5667 67.4016 20.75 66.1856 20.6278M73.5424 29.6722C69.9552 29.6722 67.7056 27.4111 67.7056 23.7444C67.7056 19.9556 70.016 17.5722 73.664 17.5722C77.2512 17.5722 79.44 19.8333 79.44 23.5611C79.5008 27.2889 77.1904 29.6722 73.5424 29.6722Z" fill="#003A2B"/>
</svg>
