<svg width="46" height="46" viewBox="0 0 46 46" fill="none" xmlns="http://www.w3.org/2000/svg">
<path d="M41.7929 19.3135C40.8682 18.7042 39.7684 18.4168 38.6638 18.4957C38.1216 18.4989 37.5805 18.5465 37.046 18.6379C36.9012 17.8003 36.5828 17.0022 36.1113 16.2949C35.6398 15.5877 35.0255 14.9868 34.308 14.531L33.7569 14.2109L33.4013 14.7265C32.9532 15.4265 32.6228 16.1953 32.4235 17.0022C32.2338 17.7166 32.1928 18.4623 32.3029 19.1931C32.4129 19.924 32.6718 20.6245 33.0635 21.2513C32.1849 21.6532 31.2374 21.8826 30.2723 21.9269H5.0264C4.71049 21.9269 4.40752 22.0524 4.18414 22.2758C3.96075 22.4992 3.83525 22.8022 3.83523 23.1181C3.80045 25.3306 4.17414 27.5305 4.93752 29.6073C5.62814 31.6524 6.97904 33.4099 8.77772 34.6033C11.3843 35.9218 14.2867 36.5464 17.2049 36.4167C18.7732 36.4166 20.3382 36.2738 21.8807 35.99C24.0304 35.6008 26.0984 34.8493 27.9966 33.7676C29.5583 32.8616 30.9632 31.7088 32.1568 30.3541C33.926 28.2776 35.3053 25.8985 36.2281 23.3314H36.5837C37.37 23.3638 38.1548 23.2372 38.891 22.9592C39.6272 22.6812 40.2998 22.2575 40.8684 21.7135C41.3636 21.2449 41.7517 20.6748 42.0062 20.0423L42.1662 19.5802L41.7929 19.3135Z" fill="#6563FF"/>
<path d="M7.37354 21.1981H10.7515C10.7913 21.1984 10.8307 21.1909 10.8676 21.1758C10.9044 21.1607 10.9378 21.1385 10.966 21.1103C10.9941 21.0822 11.0164 21.0487 11.0314 21.0119C11.0465 20.9751 11.0541 20.9356 11.0537 20.8958V17.8735C11.0541 17.8337 11.0465 17.7942 11.0314 17.7574C11.0164 17.7206 10.9941 17.6871 10.966 17.659C10.9378 17.6308 10.9044 17.6086 10.8676 17.5935C10.8307 17.5785 10.7913 17.5709 10.7515 17.5712H7.37354C7.33375 17.5709 7.29429 17.5785 7.25747 17.5935C7.22064 17.6086 7.18719 17.6308 7.15905 17.659C7.13092 17.6871 7.10867 17.7206 7.0936 17.7574C7.07854 17.7942 7.07096 17.8337 7.0713 17.8735V20.8958C7.07355 20.9753 7.10611 21.0509 7.16231 21.1071C7.21851 21.1633 7.29409 21.1958 7.37354 21.1981ZM12.0316 21.1981H15.4095C15.4493 21.1984 15.4888 21.1909 15.5256 21.1758C15.5624 21.1607 15.5959 21.1385 15.624 21.1103C15.6521 21.0822 15.6744 21.0487 15.6895 21.0119C15.7045 20.9751 15.7121 20.9356 15.7118 20.8958V17.8735C15.7121 17.8337 15.7045 17.7942 15.6895 17.7574C15.6744 17.7206 15.6521 17.6871 15.624 17.659C15.5959 17.6308 15.5624 17.6086 15.5256 17.5935C15.4888 17.5785 15.4493 17.5709 15.4095 17.5712H12.0316C11.9918 17.5709 11.9523 17.5785 11.9155 17.5935C11.8787 17.6086 11.8452 17.6308 11.8171 17.659C11.789 17.6871 11.7667 17.7206 11.7516 17.7574C11.7366 17.7942 11.729 17.8337 11.7293 17.8735V20.8958C11.7316 20.9753 11.7641 21.0509 11.8203 21.1071C11.8765 21.1633 11.9521 21.1958 12.0316 21.1981ZM16.7785 21.1981H20.1565C20.1962 21.1984 20.2357 21.1909 20.2725 21.1758C20.3094 21.1607 20.3428 21.1385 20.3709 21.1103C20.3991 21.0822 20.4213 21.0487 20.4364 21.0119C20.4515 20.9751 20.459 20.9356 20.4587 20.8958V17.8735C20.459 17.8337 20.4515 17.7942 20.4364 17.7574C20.4213 17.7206 20.3991 17.6871 20.3709 17.659C20.3428 17.6308 20.3094 17.6086 20.2725 17.5935C20.2357 17.5785 20.1962 17.5709 20.1565 17.5712H16.7784C16.7386 17.5709 16.6992 17.5785 16.6623 17.5935C16.6255 17.6086 16.5921 17.6308 16.5639 17.659C16.5358 17.6871 16.5135 17.7206 16.4985 17.7574C16.4834 17.7942 16.4758 17.8337 16.4762 17.8735V20.8958C16.4743 20.936 16.4809 20.9761 16.4955 21.0136C16.51 21.0511 16.5322 21.0852 16.5606 21.1136C16.5891 21.1421 16.6231 21.1643 16.6606 21.1788C16.6981 21.1934 16.7383 21.1999 16.7785 21.1981ZM21.4543 21.1981H24.8322C24.872 21.1984 24.9115 21.1909 24.9483 21.1758C24.9851 21.1607 25.0186 21.1385 25.0467 21.1103C25.0749 21.0822 25.0971 21.0487 25.1122 21.0119C25.1272 20.9751 25.1348 20.9356 25.1345 20.8958V17.8735C25.1348 17.8337 25.1272 17.7942 25.1122 17.7574C25.0971 17.7206 25.0749 17.6871 25.0467 17.659C25.0186 17.6308 24.9851 17.6086 24.9483 17.5935C24.9115 17.5785 24.872 17.5709 24.8322 17.5712H21.4543C21.4145 17.5709 21.3751 17.5785 21.3382 17.5935C21.3014 17.6086 21.268 17.6308 21.2398 17.659C21.2117 17.6871 21.1894 17.7206 21.1744 17.7574C21.1593 17.7942 21.1517 17.8337 21.1521 17.8735V20.8958C21.1517 20.9356 21.1593 20.9751 21.1744 21.0119C21.1894 21.0487 21.2117 21.0822 21.2398 21.1103C21.268 21.1385 21.3014 21.1607 21.3382 21.1758C21.3751 21.1909 21.4145 21.1984 21.4543 21.1981ZM12.0316 16.8779H15.4095C15.4889 16.8756 15.5645 16.843 15.6207 16.7868C15.6768 16.7306 15.7094 16.6551 15.7118 16.5757V13.5532C15.7121 13.5134 15.7045 13.474 15.6895 13.4372C15.6744 13.4003 15.6521 13.3669 15.624 13.3387C15.5959 13.3106 15.5624 13.2884 15.5256 13.2733C15.4888 13.2582 15.4493 13.2506 15.4095 13.251H12.0316C11.9918 13.2506 11.9523 13.2582 11.9155 13.2733C11.8787 13.2884 11.8452 13.3106 11.8171 13.3387C11.789 13.3669 11.7667 13.4003 11.7516 13.4372C11.7366 13.474 11.729 13.5134 11.7293 13.5532V16.5756C11.7346 16.654 11.7682 16.7279 11.8238 16.7834C11.8793 16.839 11.9532 16.8726 12.0316 16.8779ZM16.7785 16.8779H20.1565C20.2359 16.8755 20.3114 16.8429 20.3676 16.7867C20.4238 16.7306 20.4564 16.655 20.4587 16.5756V13.5532C20.459 13.5134 20.4515 13.474 20.4364 13.4372C20.4213 13.4003 20.3991 13.3669 20.3709 13.3387C20.3428 13.3106 20.3094 13.2884 20.2725 13.2733C20.2357 13.2582 20.1962 13.2506 20.1565 13.251H16.7784C16.7386 13.2506 16.6992 13.2582 16.6623 13.2733C16.6255 13.2884 16.5921 13.3106 16.5639 13.3387C16.5358 13.3669 16.5135 13.4003 16.4985 13.4372C16.4834 13.474 16.4758 13.5134 16.4762 13.5532V16.5756C16.4758 16.6154 16.4834 16.6549 16.4985 16.6917C16.5135 16.7285 16.5358 16.762 16.5639 16.7901C16.5921 16.8182 16.6255 16.8405 16.6623 16.8555C16.6992 16.8706 16.7387 16.8782 16.7785 16.8779ZM21.4542 16.8779H24.8322C24.9117 16.8755 24.9872 16.8429 25.0434 16.7867C25.0995 16.7306 25.1321 16.655 25.1345 16.5756V13.5532C25.1321 13.4738 25.0995 13.3983 25.0434 13.3421C24.9872 13.2859 24.9117 13.2533 24.8322 13.251H21.4543C21.4145 13.2506 21.3751 13.2582 21.3382 13.2733C21.3014 13.2884 21.268 13.3106 21.2398 13.3387C21.2117 13.3669 21.1894 13.4003 21.1744 13.4372C21.1593 13.474 21.1517 13.5134 21.1521 13.5532V16.5756C21.1544 16.655 21.187 16.7306 21.2432 16.7867C21.2994 16.8429 21.3748 16.8755 21.4542 16.8779ZM21.4543 12.5398H24.8322C24.872 12.5402 24.9115 12.5326 24.9483 12.5175C24.9851 12.5025 25.0186 12.4802 25.0467 12.4521C25.0749 12.4239 25.0971 12.3905 25.1122 12.3537C25.1272 12.3168 25.1348 12.2774 25.1345 12.2376V9.21521C25.1321 9.1358 25.0995 9.06027 25.0434 9.00409C24.9872 8.94791 24.9117 8.91532 24.8322 8.91298H21.4543C21.4145 8.91263 21.3751 8.92021 21.3382 8.93528C21.3014 8.95035 21.268 8.9726 21.2398 9.00073C21.2117 9.02886 21.1894 9.06232 21.1744 9.09915C21.1593 9.13597 21.1517 9.17543 21.1521 9.21521V12.2376C21.1544 12.317 21.187 12.3925 21.2432 12.4487C21.2994 12.5049 21.3749 12.5375 21.4543 12.5398ZM26.1657 21.1981H29.5436C29.5834 21.1984 29.6229 21.1909 29.6597 21.1758C29.6965 21.1607 29.73 21.1385 29.7581 21.1103C29.7863 21.0822 29.8085 21.0488 29.8236 21.0119C29.8386 20.9751 29.8462 20.9356 29.8459 20.8959V17.8735C29.8462 17.8337 29.8386 17.7942 29.8236 17.7574C29.8085 17.7206 29.7863 17.6871 29.7581 17.659C29.73 17.6308 29.6965 17.6086 29.6597 17.5935C29.6229 17.5785 29.5834 17.5709 29.5436 17.5712H26.1657C26.1259 17.5709 26.0864 17.5785 26.0496 17.5935C26.0128 17.6086 25.9793 17.6308 25.9512 17.659C25.9231 17.6871 25.9008 17.7206 25.8858 17.7574C25.8707 17.7942 25.8631 17.8337 25.8635 17.8735V20.8959C25.8657 20.9753 25.8983 21.0509 25.9545 21.1071C26.0107 21.1633 26.0862 21.1958 26.1657 21.1981Z" fill="#D8D8FF"/>
</svg>
