<svg width="46" height="46" viewBox="0 0 46 46" fill="none" xmlns="http://www.w3.org/2000/svg">
<path d="M15.3337 46C19.5657 46 23.0003 42.5653 23.0003 38.3333V30.6666H15.3337C11.1017 30.6666 7.66699 34.1013 7.66699 38.3333C7.66699 42.5653 11.1017 46 15.3337 46Z" fill="#0ACF83"/>
<path d="M7.66699 23C7.66699 18.768 11.1017 15.3334 15.3337 15.3334H23.0003V30.6667H15.3337C11.1017 30.6667 7.66699 27.232 7.66699 23Z" fill="#A259FF"/>
<path d="M7.66699 7.66667C7.66699 3.43467 11.1017 0 15.3337 0H23.0003V15.3333H15.3337C11.1017 15.3333 7.66699 11.8987 7.66699 7.66667Z" fill="#F24E1E"/>
<path d="M23 0H30.6667C34.8987 0 38.3333 3.43467 38.3333 7.66667C38.3333 11.8987 34.8987 15.3333 30.6667 15.3333H23V0Z" fill="#FF7262"/>
<path d="M38.3333 23C38.3333 27.232 34.8987 30.6667 30.6667 30.6667C26.4347 30.6667 23 27.232 23 23C23 18.768 26.4347 15.3334 30.6667 15.3334C34.8987 15.3334 38.3333 18.768 38.3333 23Z" fill="#1ABCFE"/>
</svg>
