<svg width="46" height="46" viewBox="0 0 46 46" fill="none" xmlns="http://www.w3.org/2000/svg">
<g clip-path="url(#clip0_295_321)">
<path d="M44.8295 20.9796L25.0218 1.173C23.8819 0.0323408 22.0318 0.0323408 20.8901 1.173L16.7778 5.2864L21.9952 10.5038C23.2081 10.0945 24.5981 10.369 25.5645 11.3354C26.5359 12.3079 26.8086 13.7098 26.3885 14.9266L31.4169 19.9557C32.6334 19.5363 34.0375 19.8073 35.0085 20.7805C36.3669 22.1379 36.3669 24.3383 35.0085 25.6964C33.6501 27.0548 31.4503 27.0548 30.0912 25.6964C29.0698 24.6743 28.8172 23.1739 29.3347 21.9154L24.6456 17.2259L24.6448 29.5672C24.9762 29.7307 25.2885 29.9492 25.5645 30.2242C26.9226 31.5815 26.9226 33.7812 25.5645 35.1415C24.2064 36.4988 22.0052 36.4988 20.6486 35.1415C19.2909 33.7816 19.1795 31.5819 20.5368 30.2242C20.8725 29.8889 21.2035 29.6355 21.5628 29.4659V17.0103C21.2035 16.8407 20.8728 16.5891 20.5365 16.2517C19.5083 15.2238 19.316 13.7145 19.8436 12.4509L14.7286 7.30717L1.16077 20.888C0.0197546 22.0297 0.0269421 23.8797 1.16796 25.0208L20.9789 44.8274C22.1192 45.968 23.9707 45.968 25.1128 44.8274L44.8281 25.1128C45.9691 23.9714 45.9702 22.1202 44.8295 20.9796Z" fill="#F34F29"/>
</g>
<defs>
<clipPath id="clip0_295_321">
<rect width="46" height="46" fill="white"/>
</clipPath>
</defs>
</svg>
