<svg width="46" height="46" viewBox="0 0 46 46" fill="none" xmlns="http://www.w3.org/2000/svg">
<path d="M40.5271 10.9013L24.6797 1.69952C23.6803 1.13027 22.379 1.13027 21.3717 1.69952L5.35505 10.9013C4.32364 11.4946 3.59375 12.6098 3.59375 13.8026V32.1817C3.59375 33.3745 4.34269 34.49 5.37409 35.0865L9.60573 37.49C11.6283 38.4862 12.3431 38.4862 13.2635 38.4862C16.2581 38.4862 17.9688 36.6753 17.9688 33.5168V15.3719C17.9688 15.1157 17.8354 14.7344 17.5839 14.7344H15.5631C15.3072 14.7344 14.7344 15.1157 14.7344 15.3716V33.5164C14.7344 34.9166 13.4679 36.3098 11.1011 35.1264L6.72858 32.6061C6.5762 32.5235 6.46875 32.3571 6.46875 32.1817V13.8026C6.46875 13.6293 6.6682 13.4554 6.82166 13.3666L22.7865 4.18065C22.9357 4.09619 23.1549 4.09619 23.3037 4.18065L39.0738 13.3645C39.2247 13.4554 39.1715 13.6239 39.1715 13.8026V32.1817C39.1715 32.3571 39.2373 32.5278 39.0881 32.6122L23.2447 41.8036C23.1089 41.8852 22.9403 41.8852 22.7916 41.8036L18.7281 39.3782C18.6056 39.307 18.46 39.2815 18.3425 39.3473C17.2119 39.9881 17.0035 40.0732 15.943 40.4409C15.682 40.5318 15.2972 40.6896 16.0903 41.1341L21.4083 44.2801C21.9176 44.5748 22.4962 44.7278 23.0783 44.7278C23.6684 44.7278 24.2463 44.5748 24.7555 44.2801L40.5267 35.0865C41.5581 34.4857 42.0469 33.3745 42.0469 32.1817V13.8026C42.0469 12.6098 41.5581 11.4975 40.5271 10.9013ZM27.9989 29.2693C23.7849 29.2693 22.8566 28.1068 22.5472 26.0112C22.5113 25.7856 22.3197 25.5157 22.0901 25.5157H20.0305C19.7757 25.5157 19.5708 25.8247 19.5708 26.0784C19.5708 28.7615 21.0295 32.0124 27.9993 32.0124C33.0445 32.0124 35.9371 30.0521 35.9371 26.5826C35.9371 23.1427 33.6131 22.24 28.7202 21.5924C23.7745 20.9387 23.272 20.6084 23.272 19.4498C23.272 18.4946 23.6975 17.2206 27.3596 17.2206C30.6317 17.2206 31.8377 17.9228 32.334 20.1283C32.3765 20.3356 32.5658 20.4844 32.7797 20.4844H34.8475C34.9747 20.4844 35.0962 20.433 35.1853 20.3421C35.2716 20.2443 35.3172 20.1218 35.3057 19.9903C34.9855 16.1924 32.4623 14.4225 27.3592 14.4225C22.82 14.4225 20.1121 16.3394 20.1121 19.5526C20.1121 23.0378 22.8063 24.0009 27.1637 24.4318C32.3765 24.9428 32.7818 25.7047 32.7818 26.73C32.7818 28.5107 31.3522 29.2693 27.9989 29.2693Z" fill="#83CD29"/>
</svg>
