<svg width="46" height="46" viewBox="0 0 46 46" fill="none" xmlns="http://www.w3.org/2000/svg">
<path d="M21.2808 20.0061C20.6945 20.3446 20.2217 20.8493 19.9223 21.4566C19.6228 22.0638 19.5102 22.7461 19.5985 23.4173C19.6869 24.0886 19.9723 24.7185 20.4187 25.2275C20.8651 25.7365 21.4525 26.1017 22.1064 26.2769C22.7604 26.4521 23.4516 26.4295 24.0927 26.2119C24.7338 25.9942 25.2959 25.5914 25.708 25.0542C26.1202 24.5171 26.3637 23.8698 26.408 23.1942C26.4522 22.5187 26.2952 21.8451 25.9566 21.2588C25.5027 20.4727 24.755 19.8991 23.8781 19.6642C23.0013 19.4292 22.067 19.5522 21.2808 20.0061ZM36.6231 23.72C36.3984 23.4631 36.1613 23.2056 35.9117 22.9474C36.086 22.7642 36.2547 22.5812 36.4177 22.3983C39.4956 18.9401 40.7946 15.472 39.5909 13.387C38.4368 11.3879 35.0035 10.7922 30.7054 11.6279C30.282 11.7107 29.861 11.8042 29.4423 11.9082C29.3622 11.6319 29.2769 11.3572 29.1866 11.084C27.7284 6.69001 25.3731 3.83186 22.9656 3.83337C20.6572 3.83443 18.4261 6.51113 17.0028 10.6519C16.8628 11.0604 16.7332 11.4723 16.6142 11.8876C16.3342 11.8189 16.0531 11.7555 15.7708 11.6973C11.236 10.7662 7.58346 11.3794 6.38215 13.4656C5.23023 15.4661 6.43492 18.7361 9.31179 22.0371C9.59711 22.3638 9.8905 22.6831 10.192 22.995C9.83658 23.3611 9.50005 23.727 9.18639 24.0908C6.37924 27.3453 5.24344 30.5618 6.3935 32.5537C7.58123 34.6112 11.1824 35.2837 15.5655 34.4212C15.9207 34.3508 16.274 34.2715 16.6253 34.1835C16.754 34.6327 16.8951 35.078 17.0488 35.5194C18.4658 39.5771 20.6844 42.1676 22.9847 42.1668C25.3603 42.1654 27.7417 39.3821 29.1846 35.1542C29.2985 34.8201 29.4064 34.4731 29.5086 34.1159C29.9624 34.2288 30.4191 34.3289 30.8788 34.4164C35.1019 35.2154 38.4544 34.587 39.6024 32.5936C40.7878 30.5346 39.5656 27.0813 36.6231 23.72ZM7.80123 14.2827C8.54079 12.9986 11.5258 12.4976 15.4412 13.3014C15.6915 13.3529 15.946 13.4104 16.2048 13.4739C15.8225 15.1649 15.5528 16.8794 15.3974 18.6061C13.9846 19.6 12.6376 20.6843 11.3649 21.8522C11.0845 21.5622 10.8116 21.2652 10.5461 20.9611C8.08118 18.1327 7.10703 15.4883 7.80123 14.2827ZM15.2507 25.2616C14.2721 24.5206 13.3626 23.7615 12.5372 22.998C13.3621 22.2392 14.2721 21.4827 15.2487 20.7437C15.2136 21.4965 15.1962 22.2499 15.1965 23.0038C15.197 23.7567 15.2151 24.5093 15.2507 25.2616ZM15.2495 32.8144C13.5882 33.1838 11.8732 33.2443 10.19 32.9929C9.72864 32.957 9.2795 32.8268 8.87039 32.6105C8.46128 32.3941 8.10088 32.0961 7.81146 31.735C7.11366 30.5262 8.02567 27.9438 10.4264 25.1604C10.7282 24.8116 11.04 24.4718 11.3616 24.1412C12.6345 25.3152 13.9836 26.4038 15.4002 27.3997C15.5578 29.1485 15.8307 30.8849 16.2171 32.5977C15.8964 32.6779 15.5739 32.7501 15.2495 32.8144ZM28.86 17.4056C28.2172 17.0006 27.5664 16.6085 26.9077 16.2295C26.2594 15.8564 25.6034 15.4973 24.9396 15.1522C26.0762 14.6743 27.1934 14.2661 28.272 13.9335C28.5263 15.0803 28.7225 16.2391 28.86 17.4056ZM18.5514 11.1842C19.7709 7.63617 21.5752 5.47151 22.9665 5.47092C24.4483 5.47021 26.3735 7.80592 27.6323 11.5997C27.7141 11.847 27.7914 12.0957 27.8642 12.3458C26.2104 12.8588 24.5923 13.4806 23.0205 14.2073C21.4553 13.4721 19.8423 12.8433 18.1924 12.3252C18.3027 11.942 18.4224 11.5617 18.5514 11.1842ZM17.7841 13.9131C18.9091 14.2673 20.0156 14.678 21.0993 15.1436C19.7565 15.8366 18.4485 16.5913 17.1752 17.408C17.329 16.1851 17.5337 15.0135 17.7841 13.9131ZM17.178 28.5961C17.813 29.0026 18.4572 29.3941 19.1108 29.7705C19.7775 30.1543 20.453 30.522 21.1374 30.8736C20.0454 31.3554 18.9295 31.7808 17.7939 32.1481C17.5406 31.0324 17.3337 29.8402 17.178 28.5961ZM27.6347 34.625C27.1248 36.2486 26.3204 37.7646 25.2617 39.097C25.0001 39.4787 24.6628 39.8028 24.2711 40.0491C23.8793 40.2953 23.4412 40.4587 22.9838 40.5289C21.5881 40.5297 19.8066 38.4493 18.5948 34.9793C18.4521 34.569 18.3208 34.155 18.2009 33.7373C19.8586 33.2025 21.4782 32.5559 23.0485 31.802C24.6332 32.5334 26.2641 33.1599 27.9309 33.6775C27.8399 33.9956 27.7412 34.3115 27.6347 34.625ZM28.329 32.0869C27.238 31.7496 26.1046 31.3346 24.9516 30.8497C25.6015 30.5076 26.2562 30.1464 26.9156 29.7659C27.5923 29.3752 28.2517 28.9747 28.8938 28.5644C28.7659 29.7475 28.5774 30.9231 28.329 32.0869ZM29.1844 22.9968C29.1858 24.1608 29.1495 25.3238 29.0754 26.4859C28.1311 27.125 27.1341 27.749 26.0969 28.3478C25.0639 28.9442 24.0404 29.4923 23.0364 29.9883C21.98 29.482 20.9438 28.9364 19.9281 28.3515C18.918 27.7701 17.9312 27.151 16.9674 26.4942C16.8793 25.3325 16.835 24.1686 16.8343 23.0026C16.8335 21.8374 16.8771 20.6739 16.9648 19.5111C17.9088 18.8664 18.8985 18.2429 19.9218 17.6521C20.9497 17.0585 21.986 16.5128 23.0166 16.0182C24.0601 16.5253 25.0847 17.0688 26.0906 17.6486C27.0999 18.2287 28.0895 18.8412 29.0595 19.4861C29.1428 20.6545 29.1843 21.8247 29.1844 22.9968ZM31.0181 13.2355C34.7007 12.5192 37.4773 13.0011 38.1729 14.2058C38.9138 15.4892 37.8519 18.3237 35.1947 21.3096C35.0479 21.4743 34.8954 21.6399 34.7376 21.806C33.4429 20.6356 32.0699 19.5548 30.6284 18.5709C30.4829 16.8631 30.2233 15.1669 29.8512 13.4938C30.2478 13.3962 30.6367 13.3101 31.0181 13.2355ZM30.7692 20.6812C31.7416 21.3911 32.6765 22.1511 33.5701 22.9579C32.6804 23.778 31.7485 24.551 30.7781 25.2738C30.8078 24.5149 30.8224 23.7556 30.8219 22.996C30.8216 22.2242 30.804 21.4526 30.7692 20.6812ZM38.183 31.7763C37.4864 32.986 34.7946 33.4905 31.183 32.8072C30.7691 32.729 30.3444 32.636 29.9089 32.5282C30.2719 30.8335 30.52 29.1162 30.6515 27.3881C32.0907 26.3871 33.4593 25.2883 34.7476 24.0993C34.973 24.3335 35.1874 24.5667 35.3909 24.7987C36.5429 26.0513 37.4545 27.5052 38.0801 29.0879C38.2802 29.5052 38.3925 29.959 38.4102 30.4214C38.4279 30.8838 38.3506 31.345 38.183 31.7763Z" fill="black"/>
</svg>
