<svg width="46" height="46" viewBox="0 0 46 46" fill="none" xmlns="http://www.w3.org/2000/svg">
<g clip-path="url(#clip0_295_332)">
<path d="M0 23V46H46V0H0V23ZM27.9124 37.6165C28.1194 37.4996 28.8918 37.053 29.6221 36.6294L30.9446 35.8628L31.2225 36.2729C31.6097 36.8632 32.4549 37.674 32.9667 37.9443C34.4348 38.7186 36.4492 38.6093 37.4421 37.7181C37.812 37.4057 38.0439 36.9418 38.0439 36.4243C38.0439 36.3937 38.0439 36.3649 38.042 36.3343V36.3381C38.042 35.8052 37.9749 35.5714 37.697 35.1689C37.3405 34.6591 36.6102 34.2297 34.5364 33.3289C32.1636 32.3073 31.142 31.6729 30.2067 30.6647C29.6432 30.0246 29.2081 29.2541 28.9551 28.4069L28.9436 28.3647C28.7692 27.715 28.7251 26.0858 28.8631 25.4303C29.3518 23.1361 31.0826 21.5395 33.58 21.0642C34.3908 20.9108 36.2748 20.9683 37.0702 21.1657C38.2394 21.4571 39.1287 21.9784 39.9472 22.8256C40.3707 23.2779 40.9994 24.1021 41.0492 24.3014C41.0646 24.3589 39.0636 25.7006 37.8523 26.4538C37.8082 26.4826 37.6318 26.2928 37.4363 26.0015C36.8422 25.139 36.2231 24.7672 35.2743 24.702C33.879 24.6062 32.982 25.3364 32.9897 26.5554C32.9897 26.5765 32.9878 26.6014 32.9878 26.6263C32.9878 26.9157 33.0606 27.1879 33.189 27.4256L33.1852 27.416C33.4918 28.0504 34.063 28.4318 35.8493 29.2043C39.1441 30.6226 40.5528 31.556 41.4287 32.8842C42.4062 34.3658 42.6267 36.7329 41.9616 38.4924C41.2332 40.4052 39.422 41.7047 36.8728 42.1341C36.0851 42.274 34.2163 42.2529 33.3692 42.0996C31.5215 41.7699 29.7697 40.8576 28.6887 39.6597C28.2651 39.1939 27.439 37.973 27.4908 37.8867C27.5118 37.8561 27.7016 37.7392 27.9124 37.6165ZM10.0778 23.1246C10.0778 22.1011 10.0989 21.2462 10.1277 21.2271C10.1507 21.1964 13.7943 21.1811 18.2103 21.1888L26.2507 21.2118L26.2717 23.0882L26.2871 24.9723H20.2975V41.9846H16.0617V24.9723H10.0778V23.1246Z" fill="black"/>
</g>
<defs>
<clipPath id="clip0_295_332">
<rect width="46" height="46" fill="white"/>
</clipPath>
</defs>
</svg>
