<svg width="65" height="62" viewBox="0 0 65 62" fill="none" xmlns="http://www.w3.org/2000/svg">
<circle cx="31.1786" cy="31" r="30.8124" fill="white"/>
<ellipse cx="34.5677" cy="31.9244" rx="29.8881" ry="28.6556" fill="#FFDC58" fill-opacity="0.82"/>
<path d="M47.5092 36.2381C43.5652 40.1821 25.5297 40.7573 17.0049 40.5518C16.7995 40.5518 16.3887 40.6751 16.3887 41.1681C16.3887 41.7843 21.6268 52.2606 33.9518 51.0281C43.8117 50.0421 47.0984 40.7573 47.5092 36.2381Z" fill="white" stroke="white"/>
<path d="M33.3881 51.4892C33.3623 51.4717 32.9118 51.4923 32.387 51.5351C31.2794 51.6253 30.6563 51.6186 29.4413 51.5033C28.4391 51.4081 26.388 50.9776 25.7491 50.7284C25.562 50.6554 25.1798 50.5103 24.8997 50.4059C24.3743 50.2102 23.6553 49.8987 23.4652 49.7845C23.4057 49.7488 23.0208 49.5323 22.6099 49.3034C20.41 48.078 18.3743 46.1045 17.044 43.9078C16.2616 42.6157 15.4366 40.5199 15.538 40.0819C15.6044 39.7955 15.9022 39.5294 16.2033 39.4875C16.4079 39.4591 17.5387 39.6622 18.2171 39.8492C18.4193 39.9049 19.2286 40.0414 20.2406 40.1903C20.8217 40.2758 22.4605 40.4343 23.4548 40.5012C23.7099 40.5183 24.0858 40.5446 24.2901 40.5596C24.6365 40.585 25.0578 40.5897 26.6836 40.5867C28.3316 40.5835 29.8103 40.4612 32.1811 40.1317C35.4642 39.6755 37.0297 39.3117 40.3725 38.2277C41.6265 37.8211 43.6071 36.9911 45.1495 36.2259C45.6461 35.9795 46.0915 35.7621 46.1394 35.7428C46.1872 35.7234 46.3788 35.6137 46.5651 35.4989C47.0777 35.1831 47.5204 35.0861 47.8159 35.2247C48.2049 35.4073 48.2981 35.6608 48.2558 36.4217C48.1132 38.991 47.5078 41.0872 46.312 43.1526C45.2432 44.9986 43.6596 46.7932 42.0299 48.0055C41.8351 48.1503 41.5164 48.3862 41.3214 48.5297C40.7353 48.9611 38.7534 50.0069 37.9175 50.3258C37.7015 50.4082 37.3479 50.5428 37.1319 50.625C36.4322 50.891 33.5026 51.5673 33.3881 51.4892ZM35.6312 49.4168C38.1052 48.718 40.4794 47.4009 42.2119 45.766C42.865 45.1497 43.9533 43.9363 43.8934 43.8913C43.8752 43.8776 43.4237 43.9873 42.8901 44.1351C42.3566 44.2828 40.9287 44.5622 39.7171 44.7558C37.5141 45.108 37.5141 45.108 39.244 44.3277C41.3366 43.3838 43.5193 42.3505 43.9009 42.1232C43.9943 42.0675 44.3768 41.8438 44.751 41.6259C45.1251 41.4081 45.4923 41.1373 45.567 41.0243C45.9071 40.5096 46.717 37.5091 46.5498 37.3836C46.5244 37.3646 46.0086 37.5869 45.4036 37.8777C44.31 38.4033 43.02 38.9658 42.4339 39.1726C42.2653 39.2321 41.9701 39.34 41.7779 39.4123C41.0646 39.6805 39.5544 40.1677 38.611 40.4338C35.5528 41.2965 33.1193 41.7611 30.4855 41.9851C28.5623 42.1487 27.9961 42.1732 26.0772 42.1754C25.0952 42.1766 23.5073 42.1195 22.7517 42.0559C22.5471 42.0386 22.171 42.0109 21.9159 41.9942C21.6608 41.9776 21.1994 41.9313 20.8906 41.8914C20.5817 41.8515 20.203 41.8045 20.0489 41.7869C19.8948 41.7693 19.2907 41.6654 18.7065 41.556C18.1223 41.4466 17.6281 41.3782 17.6084 41.4041C17.4912 41.558 18.8685 43.9037 19.4531 44.5458C19.747 44.8687 20.7514 45.1352 23.428 45.6004C24.8209 45.8425 25.3353 45.9235 26.9989 46.1628C27.4631 46.2295 27.9696 46.303 28.1245 46.3259C28.5787 46.3933 24.0956 46.8944 22.9691 46.9023C22.4156 46.9061 21.9506 46.925 21.936 46.9442C21.8874 47.008 23.2369 47.8557 24.1102 48.3099C24.8222 48.6802 26.6046 49.3452 27.3745 49.5279C29.0573 49.927 30.4536 50.0579 32.0774 49.9689C32.9369 49.9218 34.9514 49.6088 35.6312 49.4168ZM12.942 43.3002C12.3802 42.4674 12.2348 42.0988 12.107 41.1835C11.8114 39.0668 13.0645 36.9459 15.1028 36.1129C15.7195 35.8609 17.1691 35.6953 17.6574 35.8211C18.3316 35.9948 18.7215 36.1196 18.9049 36.2204C19.0857 36.3198 19.0527 36.3391 18.4799 36.469C16.5238 36.9125 15.3991 37.5646 14.4575 38.801C13.895 39.5396 13.6394 40.1 13.3162 41.3033C13.2152 41.6793 13.1394 42.538 13.1301 43.411C13.1288 43.5337 13.0802 43.5051 12.942 43.3002ZM51.3801 38.0676C51.3377 37.7649 50.9844 36.8113 50.7211 36.2883C50.2367 35.3257 49.6778 34.63 48.9356 34.0654C47.6244 33.0681 46.4652 32.7643 44.384 32.8726C44.0448 32.8903 43.7839 32.8673 43.8042 32.8215C43.8391 32.7431 44.4131 32.3542 44.9794 32.0252C45.3575 31.8056 46.7628 31.5486 47.3562 31.5905C49.5728 31.7471 51.4806 33.5016 51.7804 35.6594C51.8778 36.3603 51.8515 37.1464 51.7244 37.3307C51.6881 37.3835 51.6655 37.478 51.6742 37.5409C51.6829 37.6037 51.6274 37.7983 51.5508 37.9733C51.4166 38.2799 51.4104 38.2833 51.3801 38.0676Z" fill="black"/>
<path d="M11.4589 27.1537C11.3194 13.2664 27.481 15.079 27.4805 26.1812" stroke="black" strokeWidth="2" stroke-linecap="round"/>
<path d="M31.1796 26.6862C31.0401 12.7989 47.2017 14.6115 47.2012 25.7137" stroke="black" strokeWidth="2" stroke-linecap="round"/>
<circle cx="31.1786" cy="31" r="28.8124" stroke="black" strokeWidth="4"/>
</svg>
